<svg width="432" height="430" viewBox="0 0 432 430" fill="none" xmlns="http://www.w3.org/2000/svg">
<path d="M359.69 143.961H360.128C379.058 143.961 397.212 151.446 410.596 164.768C423.981 178.091 431.5 196.16 431.5 215C431.5 233.84 423.981 251.909 410.596 265.232C397.212 278.554 379.058 286.039 360.128 286.039H359.69C340.511 286.039 322.117 293.623 308.554 307.123C294.992 320.622 287.372 338.932 287.372 358.024V358.461C287.372 377.301 279.853 395.37 266.469 408.692C253.084 422.015 234.93 429.5 216 429.5C197.07 429.5 178.916 422.015 165.531 408.692C152.147 395.37 144.628 377.301 144.628 358.461V358.024C144.628 338.932 137.008 320.622 123.446 307.123C109.883 293.623 91.4894 286.039 72.3104 286.039H71.8722C52.9424 286.039 34.7883 278.554 21.4036 265.232C8.01898 251.909 0.5 233.84 0.5 215C0.5 196.16 8.01898 178.091 21.4036 164.768C34.7883 151.446 52.9424 143.961 71.8722 143.961H72.3104C91.4894 143.961 109.883 136.377 123.446 122.877C137.008 109.378 144.628 91.068 144.628 71.9757V71.5394C144.628 52.6994 152.147 34.6305 165.531 21.3078C178.916 7.98505 197.07 0.5 216 0.5C234.93 0.5 253.084 7.98505 266.469 21.3078C279.853 34.6305 287.372 52.6994 287.372 71.5394V71.9757C287.372 91.068 294.992 109.378 308.554 122.877C322.117 136.377 340.511 143.961 359.69 143.961ZM175.626 275.48C187.58 283.419 201.631 287.65 216 287.639C235.257 287.625 253.72 280 267.332 266.441C280.945 252.882 288.591 234.497 288.591 215.327C288.591 201.022 284.329 187.039 276.344 175.146C268.359 163.253 257.009 153.985 243.732 148.514C230.455 143.043 215.846 141.614 201.753 144.409C187.66 147.203 174.716 154.095 164.558 164.213C154.4 174.332 147.485 187.222 144.688 201.253C141.891 215.284 143.338 229.826 148.845 243.039C154.352 256.251 163.672 267.541 175.626 275.48Z" fill="#074F47" stroke="#064F46"/>
</svg>
